<svg xmlns="http://www.w3.org/2000/svg" xmlns:xlink="http://www.w3.org/1999/xlink"><symbol id="instagram" viewBox="0 0 128 128"><g fill="none" stroke="#283044" stroke-linecap="round" stroke-linejoin="round" stroke-width="6"><circle cx="64" cy="64" r="28.8"/><rect width="113.6" height="113.6" x="7.2" y="7.2" rx="27.5"/><circle cx="98.2" cy="29" r="3"/></g></symbol><symbol id="bag" viewBox="0 0 128 128"><path fill="none" stroke="#283044" stroke-linecap="round" stroke-linejoin="round" stroke-width="6" d="M22.4 32.6h83.8v89.82H22.4zM64.3 4.5c-13.3 0-24 12.6-24 28.1h48c0-15.5-10.8-28.1-24-28.1z"/></symbol><symbol id="favourite" viewBox="0 0 128 128"><defs><symbol id="a" viewBox="0 0 118.4 113.8"><path fill="none" stroke="#231f20" stroke-miterlimit="10" stroke-width="6" d="M85 3l5.1.3c11 1 23.8 11.1 25.3 30.4v6.5C114 58.7 100 81.5 59.2 110.1 18.4 81.5 4.4 58.7 3 40.2v-6.5C4.6 14.4 17.3 4.3 28.3 3.3l5.1-.3c12.7 0 18.8 5.5 25.8 13.8C66.2 8.5 72.3 3 85 3"/></symbol></defs><use width="118.4" height="113.77" transform="translate(4.8 7.6)" xlink:href="#a"/></symbol><symbol id="checkmark" viewBox="0 0 128 128"><path fill="none" stroke="#283044" stroke-linecap="round" stroke-linejoin="round" stroke-width="6" d="M120 28.8l-72 86.4-36-36"/></symbol><symbol id="package" viewBox="0 0 128 128"><path fill="none" stroke="#283044" stroke-linecap="round" stroke-linejoin="round" stroke-width="6" d="M124 24v72l-60.2 24V40L124 24zm-60.2 96L4 96.8v-72L63.8 40M4 24L64 8l60 16m-9.5 65.9l-20 8m20-19.8l-20 8"/><path fill="#283044" stroke="#283044" stroke-linecap="round" stroke-linejoin="round" stroke-width="6" d="M28.8 65.9V30.5l28.6-7.8 9.5 3.6-27.4 6.9-.5 36.4-10.2-3.7z"/></symbol><symbol id="mail" viewBox="0 0 128 128"><path fill="none" stroke="#283044" stroke-linecap="round" stroke-linejoin="round" stroke-width="6.2" d="M4 28.8h115.2v72H4z"/><path fill="none" stroke="#283044" stroke-linecap="round" stroke-linejoin="round" stroke-width="6" d="M4 28.8L61.6 72l57.6-43.2M4 100.8l36-43.2m79.2 43.2l-36-43.2"/></symbol><symbol id="search" viewBox="0 0 128 128"><circle cx="53.5" cy="53.7" r="49.3" fill="none" stroke="#283044" stroke-miterlimit="10" stroke-width="6"/><path fill="none" stroke="#283044" stroke-linecap="round" stroke-linejoin="round" stroke-width="6" d="M88.4 88.4L124 124"/></symbol><symbol id="facebook" viewBox="0 0 128 128"><g fill="none" stroke="#283044" stroke-linecap="round" stroke-linejoin="round" stroke-width="6"><path d="M65.5 120.8h-58V7.2h113.6v113.6H84.2"/><path d="M65.5 120.8v-48H52.7V56h12.4c0-27.7 12-35 36.5-35v18.1C82 39.1 84.2 51 84.2 56.3h17.4v17.1H84.2v47.4"/></g></symbol><symbol id="twitter" viewBox="0 0 128 128"><path fill="none" stroke="#283044" stroke-linecap="round" stroke-linejoin="round" stroke-width="6" d="M66 50.8c-4.3-22.9 19.3-41.6 40.7-22.1 8.5-1 11-3.5 14.8-5.3 0 0-1.1 7-8.9 12.3a48.7 48.7 0 0 0 12-2.8s-2.1 5.8-10.8 10.8c2.2 51.1-46.3 91.9-106.7 63.7 0 0 25.1 2.8 36-10.4-7.8-1.7-14.8-1.7-22.3-15.8 0 0 7.5 1.5 9.5-2-2.8-2.8-16.1-1.6-18.8-23.4 0 0 5.3 3.3 10 1.6-6.6-5.8-13.7-14.8-7.1-32.2 0 0 19 27.5 51.6 25.6z"/></symbol></svg>