<svg xmlns="http://www.w3.org/2000/svg" width="15.9" height="15.6" viewBox="0 0 15.9 15.6"><path fill="none" d="M10.4 3.8a1.4 1.4 0 0 0-.3.9l-.3 2.9a.6.6 0 0 0 .1.4c.4-.3.4-1 .6-1.4a6.3 6.3 0 0 0 .8-2.3.7.7 0 0 0-.1-.5c-.1-.3-.6-.2-.8 0zm-2.5-.1a1.1 1.1 0 0 0-.1-.5l-.4-.3a2.8 2.8 0 0 0-1.1 1.3.5.5 0 0 1 .5.3c.1.2.1.4.2.6s.1 1.8.2 2.8l.2.2a1.5 1.5 0 0 0 .5-.7 2.8 2.8 0 0 0 .1-.9zm1.4-.6h-.6c-.1.1-.3.2-.3.4a27.1 27.1 0 0 1 .1 4v.7a1.1 1.1 0 0 0 .7-.8 4.5 4.5 0 0 0 .1-1.1 25 25 0 0 1 .5-2.9c.1-.1-.3-.3-.5-.3z"/><path fill="#283044" d="M14.7.7c-.1-.4-.5-.8-.9-.7a1 1 0 0 0-.5.4c-1 1.2-.5 3.1-1.5 4.4a1.3 1.3 0 0 0-.8-1.7c-.3-.1-.7-.1-.9-.3s-1.7.2-2.3-.3-1 0-1.3.3-1.1 2.5-1.7 3.6a8.7 8.7 0 0 0-1.6-3c-.4-.4-.9-.9-1.4-.7a.9.9 0 0 0-.6.7 1.7 1.7 0 0 0 0 1c.2 1.2 1 2.2 1.3 3.4s.2.9.4 1.3A4.7 4.7 0 0 0 4.4 11c.6.6 1.3 1.2 1.3 1.9v.9c-.1 1.5-.1.9-.1 1.3s.1.5.2.5.3-.1.3-.4 0 .1.1-1.4v-1a2.3 2.3 0 0 0-.9-1.8 5.3 5.3 0 0 1-1.5-1.5A6.3 6.3 0 0 1 3 7.2C2.6 6 1.7 5 1.7 3.8s.1-.3.1-.4a.6.6 0 0 1 .7-.1 1 1 0 0 1 .4.5 22.1 22.1 0 0 1 1.8 3.4c.4 0 .6-.4.8-.8a11.9 11.9 0 0 1 .8-2 16.6 16.6 0 0 1 .3 3.2c-.2.1-.4 0-.6 0s-.5 0-.5.2.1.3.3.3h.5c.3 0 .6.3.8.4s.8.1.8-.2.7.7 1 .4l.3-.3h.4c0 .2.3.2.4.2l.4-.4a4.6 4.6 0 0 1 2-1.3c.2-.1.5-.2.4-.4s-.5-.3-.7-.1l-1.2.6c.1-.9 1-1.4 1.5-2.1s.5-3.2 1.5-4.4.3.6.2 1L12.7 8a4.8 4.8 0 0 1-.5 1.7 13 13 0 0 1-.8 1.7 7.7 7.7 0 0 0-.5 4c0 .1 0 .2.2.2l.3-.2v-1.3a6.1 6.1 0 0 1 .8-3.2 8.2 8.2 0 0 0 1.2-3.2c.4-1.9.8-3.9 1.3-5.8a4.8 4.8 0 0 0 0-1.2zM7.9 7.4a1.5 1.5 0 0 1-.5.7l-.2-.2C7.1 6.9 7 6 7 5.1s-.1-.4-.2-.6a.5.5 0 0 0-.5-.3 2.8 2.8 0 0 1 1.1-1.3l.4.3a1.1 1.1 0 0 1 .1.5v2.8a2.8 2.8 0 0 1 0 .9zm1.9-3.9a25 25 0 0 0-.5 2.9 4.5 4.5 0 0 1-.1 1.1 1.1 1.1 0 0 1-.7.8v-.7a27.1 27.1 0 0 0-.1-4c0-.2.2-.3.3-.4h.6c.2-.1.6.1.5.3zm1.5.8a6.3 6.3 0 0 1-.8 2.3c-.2.4-.2 1.1-.6 1.4a.6.6 0 0 1-.1-.4l.3-2.9a1.4 1.4 0 0 1 .3-.9c.2-.2.7-.3.8 0a.7.7 0 0 1 .1.5z"/><path fill="#010101" d="M7.1 12.3a8.5 8.5 0 0 1 .3 2.3.2.2 0 1 0 .4 0 6.3 6.3 0 0 0-.2-2.4c-.1-.3-.6-.2-.5.1z"/></svg>