<svg height="256.3" viewBox="0 0 256.3 256.3" width="256.3" xmlns="http://www.w3.org/2000/svg"><g fill="#283044"><path d="m65.4 107.5c-1.6-16.4 1.6-32.8 4.8-49 1.3-6.3 2.6-12.6 3.8-18.9.4-1.8.8-3.8 2.3-5s7-.2 8.3 3 .6 6.7-.1 10.1c-5 21.8-10.8 44.2-7 66.3.3 1.9 1.4 4.2 3.3 3.9 9.4-13.4 16.4-28.5 22-43.9 4.5-12.6 8.2-25.9 6.8-39.1-.4-3.2 3.4-5.7 6.5-5s5.2 3.8 5.8 6.9.1 6.4-.4 9.5a312.7 312.7 0 0 0 -3 73.6c.1 2.5.2 5.4-1.5 7.2s-6.8 1.1-8.8-1.7-2.1-6.4-2.1-9.8c-.2-6.3-.4-12.6-.5-18.9a249.5 249.5 0 0 1 -12.3 23.5c-1.8 3-3.8 6.1-6.9 7.7-5.1 2.6-11.8.2-15.5-4.2s-4.9-10.4-5.5-16.2z"/><path d="m105.4 178.3c4.1 3 4.9 8.7 4.7 13.7a40.8 40.8 0 0 1 -2.7 14.7 46.5 46.5 0 0 1 -6.6 11.2c-5 6.4-11.3 12.1-18.9 14.9s-16.9 2-23-3.3-7.6-11.9-7.6-18.9 2.1-13.7 4.4-20.3a295.5 295.5 0 0 1 19.8-44.5 5.2 5.2 0 0 1 2.1-2.5 5.3 5.3 0 0 1 2.5-.1c2.2.2 4.5.5 6.3 1.8s2.8 3.9 1.5 5.7a155.6 155.6 0 0 0 -24.6 61.7c-.3 1.8.5 4.5 2.2 3.9a50 50 0 0 1 15.6-37.3 17.3 17.3 0 0 1 6.5-4.2c3.9-1.2 8.1-.1 12 1.1a19.8 19.8 0 0 1 5.8 2.4m-6.1 8.4a4.2 4.2 0 0 0 -.6-2.5 3.3 3.3 0 0 0 -3.5-1.1 9.2 9.2 0 0 0 -3.3 1.9 41.3 41.3 0 0 0 -14.2 33.7 3.8 3.8 0 0 0 .6 2.3 1.6 1.6 0 0 0 2 .6 39.4 39.4 0 0 0 19-34.9z"/><path d="m47.5 116.6c.2-4.3-2.3-8.2-4.6-11.8l-18.9-28.9c-3.9-6-7.8-12-10.3-18.6s-3.5-14.1-1.3-20.9c3.5-11.3 15.9-18.9 27.8-17.7s22.2 10.3 25.8 21.7a5.8 5.8 0 0 1 .2 4.3c-1.4 3-6.2 2.1-8.2-.6s-2.1-6.1-3.4-9.1c-2.7-6.3-10.3-9.8-17-8.5s-12.2 6.8-14.2 13.3-.9 12.5 1.3 18.3 5.7 11 9.1 16.2c6.7 10.2 13.4 20.4 20.2 30.6 2.2 3.3 4.4 6.8 5.1 10.8.9 5.5-1.5 11.2-5.3 15.2-7.2 7.7-19.2 10.1-29.2 6.8s-17.8-11.8-21.6-21.6-3.6-20.9-.8-31c.4-1.8 1.5-4 3.4-3.8s5.6.4 7.8 2 3.5 4.9 1.8 7a24 24 0 0 0 -4 18.3c1 6.3 4.2 12.1 8.3 17 2.4 2.7 5.3 5.4 8.9 5.7a15.6 15.6 0 0 0 5.7-1c6.5-2.2 13.1-6.9 13.4-13.7z"/><path d="m250.9 20.4c-16.4-3.5-33.1 6.1-49.8 4.3-2-.2-5.1.6-4.5 2.5s-.8 2-1.9 2.2-2.3.3-3.1 1.1-.5 2.9.4 4 2.3 2 3.1 3.3 1.1 4.2.9 6.5l-2 24.6a5.9 5.9 0 0 1 -.9 3.2c-1.3 1.5-3.9 1.4-5 3.1s0 3.9 1.3 5.3 3 3.1 2.9 5.1c-.3 10.4-.7 20.9-1.1 31.4 0 1.7-.5 3.9-2.2 4.2s-2.2 2.6-2.7 4.4-2.8 3.7-3.9 2.2l-32.9-44.7a2.6 2.6 0 0 1 -.5-1.2 2.2 2.2 0 0 1 1.1-1.6 204.9 204.9 0 0 0 21.7-20c3.5-3.7 6.9-7.6 8.8-12.3s2.1-10.3-.6-14.5-7.9-6.5-12.8-7.9c-7.7-2.2-17-2.9-22.8 2.7-2.3 2.3-7.2-1.7-9.3.8a4.7 4.7 0 0 0 -.8 2.6l-.9 13.7c-.5 7.3-1 14.5-1.6 21.7s-.9 14.1-1.4 21.2c-.6 9.3-1.1 18.7-1.4 28.1-.1 3.5-.1 7.2 1.9 10.1s6.6 4.2 8.9 1.6 1.4-3.9 1.4-6v-31.1c-.1-.9 1.5-.6 2.1.1 11.7 13.1 19.7 29.3 31.9 41.9 2.3 2.3 4.8 4.6 7.9 5.8s6.8 1.2 9.4-.8 3.6-6.2 1.5-8.7c3.7.6 8.4 0 9.8-3.5a8.9 8.9 0 0 0 .3-4.6 190.3 190.3 0 0 1 .6-39.2c.4-3.2 3.5-5 6.4-6.4 7.9-3.8 21.6-9.2 29.7-12.8 2.9-1.7 4.7-6 3.6-8.7s-4.3-2.7-7.2-1.8c-7.7 3.1-23.6 9.2-31 12.7.6-8.3 1.2-16.6 1.9-24.9a4.8 4.8 0 0 1 .7-2.9 5 5 0 0 1 2.5-1.5 93.6 93.6 0 0 1 28.5-6c.9 2.4 4 3.6 6.6 3.1s4.8-2.2 6.8-3.8 3-2.4 3-4.2-2.9-3.8-5.3-4.4zm-107.7 51.1c.5-8.8 1-17.5 1.7-26.2.2-2.4 1.8-4.3 3.4-6 4.2-4.3 9.7-7.9 15.7-7.3a7.9 7.9 0 0 1 5.7 2.8c2 2.9.8 6.9-.9 9.9-3.1 5.5-7.7 10.1-12.2 14.5a141.5 141.5 0 0 1 -13.4 12.3z"/><path d="m121.2 183.8c-4.7-9.7-4.6-21.8 1.3-30.8 3.2-4.9 8.3-8.8 14.1-9.7s12.3 1.7 15.1 6.8c1.1 2 3.5 2.9 5.8 3.3s4.6.7 6.5 2 2.7 4.4 1 5.9a251.9 251.9 0 0 0 -27 29.5c-.6.8-1.3 1.9-.7 2.8 2.1 3 4.2 6.1 6.2 9.2 3.1 4.9 6 10 7.1 15.6s-.2 12-4.5 15.9c-6.3 5.7-17 3.6-22.8-2.5a25.9 25.9 0 0 1 -6.7-18.4 34.2 34.2 0 0 1 6.4-18.7c2.2-3.2-.1-7.4-1.8-10.9m21.1-30.4c0-.7-.9-1.3-1.6-1.3a3.6 3.6 0 0 0 -2.2.9c-8.2 5.7-11.6 17.3-7.9 26.6a1.6 1.6 0 0 0 .6.8c.7.4 1.4-.2 2-.8l13.7-15.6c.8-.9 1.4-2.5.4-2.9a8.5 8.5 0 0 1 -5-7.7m-6.6 74.9a4.7 4.7 0 0 0 2.3-2.7c1.7-3.7 1.4-8 .1-11.9s-3.4-7.3-5.5-10.8c-.5-.7-1.7.1-2.1 1a32.5 32.5 0 0 0 -1.8 4.3c-1.7 5.6-1.8 11.8 1 16.9 1.3 2.1 3.7 4.2 6 3.2z"/><path d="m249 138.8a5.9 5.9 0 0 0 -1.3-1.8c-5.2-4.8-13.5-2.5-20.1.2l-35 14a3.7 3.7 0 0 1 -2.3.4 4.2 4.2 0 0 1 -2-1c-1.7-1.4-3.3-3-5.4-3.6s-4.8.1-5.4 2.2a257.1 257.1 0 0 0 -7.7 29.9 11.8 11.8 0 0 0 -.2 5.9c1 2.9 4.1 4.7 7.2 5s6.1-.6 9-1.5c7.7-2.4 15.8-4.9 23.6-2.8a4.7 4.7 0 0 1 3.4 2.2c.7 1.2.4 2.7.1 4a43.9 43.9 0 0 1 -22.8 28c1.2-4.1 2.3-9-.2-12.5a3.2 3.2 0 0 0 -4.1-.8 7.6 7.6 0 0 0 -2.3 2.4l-.2.5a14.8 14.8 0 0 0 -2 4.2c-2.7 4.8-3.5 10.9.1 14.8s6.1 3.5 9.5 3.1a23.8 23.8 0 0 0 9.5-3.8 58.3 58.3 0 0 0 22.1-24.8c2.5-5.5 4.1-12.1 1.3-17.5s-8.1-7.2-13.3-8.4a56 56 0 0 0 -24.1-.7c-1.7.3-3.1-1.9-2.6-3.6a3.4 3.4 0 0 1 .6-1.2c.4-3.8 3.1-6.1 6.5-7.6a31.2 31.2 0 0 1 6.4-2.9c4.4-1.4 8.7-3.6 13.1-5.1a154.2 154.2 0 0 1 31.2-10.3 13.9 13.9 0 0 0 5.4-1.9c1.6-1.1 2.7-3.2 2-5z"/><path d="m45.7 148.2a7 7 0 0 1 3.5 2.3c1 1.4.8 3.2.5 4.9l-12.9 78.4c-.5 3-4.4 4.6-7.3 3.5s-4.7-4.1-5.1-7.1.3-6 .9-9a684.7 684.7 0 0 0 11.9-71.1 3.8 3.8 0 0 1 3.6-2.9 10.5 10.5 0 0 1 4.9 1z"/></g></svg>