<svg height="63.2" viewBox="0 0 64 63.2" width="64" xmlns="http://www.w3.org/2000/svg"><g fill="none"><path d="m41.8 15.4a5.8 5.8 0 0 0 -1.2 3.6l-1.2 11.7c0 .6 0 1.4.5 1.8 1.6-1.4 1.4-4 2.4-5.9a30.3 30.3 0 0 0 3.1-9.2 3.4 3.4 0 0 0 -.2-2.2 2.3 2.3 0 0 0 -3.4.2z"/><path d="m31.6 15.1a4.9 4.9 0 0 0 -.3-2 2 2 0 0 0 -1.6-1.2 11.6 11.6 0 0 0 -4.3 5 2.2 2.2 0 0 1 2 1.2 4.9 4.9 0 0 1 .5 2.4c.4 3.8.7 7.6 1 11.4.1.4.3.9.7.9h.2a4.6 4.6 0 0 0 2-2.9 21.7 21.7 0 0 0 .2-3.6z"/><path d="m37.3 12.5a4.3 4.3 0 0 0 -2.2.4 2 2 0 0 0 -1.2 1.8 123.4 123.4 0 0 1 .2 16.1 9.7 9.7 0 0 0 .2 2.9 5.6 5.6 0 0 0 2.7-3.5 23 23 0 0 0 .5-4.5 93.4 93.4 0 0 1 1.9-11.6c.2-.9-1.1-1.5-2.1-1.6z"/></g><path d="m59.1 2.7c-.5-1.6-2.1-2.9-3.7-2.5a4.6 4.6 0 0 0 -2 1.4c-4.1 4.9-2.2 12.8-6.1 17.7a4.8 4.8 0 0 0 -3-6.9c-1.3-.4-2.8-.2-3.7-1.2s-6.7.9-9.3-1.1-4-.1-5.3 1.4c-3.7 4-4.2 9.8-6.8 14.4a33.9 33.9 0 0 0 -6.5-12.3c-1.3-1.6-3.3-3.3-5.4-2.8a4 4 0 0 0 -2.7 2.8 9 9 0 0 0 .1 4c1.1 4.9 4.2 9.1 5.5 13.9a56.2 56.2 0 0 0 1.5 5.5c1.2 3.1 3.6 5.5 6.1 7.6s5.2 4.6 5.1 7.8c-.1 1.1-.1 2.2-.2 3.3a44.5 44.5 0 0 0 -.2 5.4c0 1.6.4 1.8.9 2s1.2-.3 1.2-1.6a56.2 56.2 0 0 1 .2-5.8l.2-3.8c.1-2.8-1.8-5.4-3.9-7.3s-4.5-3.6-6-6-2.1-6.4-3.2-9.5-4.9-8.8-4.9-13.7a3.2 3.2 0 0 1 .4-1.6 2.1 2.1 0 0 1 2.5-.3 5 5 0 0 1 1.8 2 67.2 67.2 0 0 1 7 13.6c1.7.1 2.7-1.8 3.3-3.3l3.1-8.1a62.7 62.7 0 0 1 1.3 12.9c-.7.5-1.6.2-2.4 0s-1.9.1-2.1.9.6 1.3 1.4 1.4 1.4 0 2.1.2 2.2 1.3 3.3 1.9 3 .4 3.2-.9a2.5 2.5 0 0 0 3.9 1.5 6.8 6.8 0 0 1 1.2-1.2 1 1 0 0 1 1.4.2 1.5 1.5 0 0 0 1.8.5 5 5 0 0 0 1.5-1.4 21.6 21.6 0 0 1 8.1-5.5c.8-.3 1.8-.8 1.6-1.7s-1.8-.8-2.8-.3l-4.7 2.5c.4-3.5 4-5.7 6-8.7 3.5-5.2 1.9-12.7 5.9-17.6 1.3.7 1.2 2.6.9 4-1.9 8.6-3.7 17.2-5.6 25.8a34.9 34.9 0 0 1 -2 7.2c-.9 2.3-2.3 4.4-3.3 6.6-2.3 5.2-2.6 10.6-2.1 16.3 0 .4.2.8 1 .8s1.1-.3 1.1-.7-.2-3.5-.1-5.4c0-4.4.8-9 3.4-12.7s3.6-8.4 4.6-12.9c1.7-8 3.4-15.9 5.2-23.8a10.2 10.2 0 0 0 .2-4.9zm-27.3 27.1a4.6 4.6 0 0 1 -2 2.9h-.2c-.4 0-.6-.5-.7-.9-.3-3.8-.6-7.6-1-11.4a4.9 4.9 0 0 0 -.5-2.4 2.2 2.2 0 0 0 -2-1.2 11.6 11.6 0 0 1 4.3-5 2 2 0 0 1 1.6 1.2 4.9 4.9 0 0 1 .3 2c.2 3.7.3 7.4.4 11.1a21.7 21.7 0 0 1 -.2 3.7zm7.6-15.7a93.4 93.4 0 0 0 -1.9 11.6 23 23 0 0 1 -.5 4.5 5.6 5.6 0 0 1 -2.7 3.5 9.7 9.7 0 0 1 -.2-2.9 123.4 123.4 0 0 0 -.2-16.1 2 2 0 0 1 1.2-1.8 4.3 4.3 0 0 1 2.2-.4c1 .1 2.3.7 2.1 1.6zm6 3.3a30.3 30.3 0 0 1 -3.1 9.2c-1 1.9-.8 4.5-2.4 5.9-.5-.4-.5-1.2-.5-1.8l1.2-11.7a5.8 5.8 0 0 1 1.2-3.6 2.3 2.3 0 0 1 3.4-.2 3.4 3.4 0 0 1 .2 2.2z" fill="#283044"/><path d="m28.6 49.8c1.1 3 .8 6.1.9 9.2a1 1 0 0 0 2 0c-.1-3.3.1-6.6-1-9.7-.5-1.2-2.3-.7-1.9.5z" fill="#010101"/></svg>