<svg xmlns="http://www.w3.org/2000/svg"><symbol id="logo" viewBox="0 0 256.3 256.3"><path fill="#283044" d="M65.4 107.5c-1.6-16.4 1.6-32.8 4.8-49 1.3-6.3 2.6-12.6 3.8-18.9.4-1.8.8-3.8 2.3-5s7-.2 8.3 3 .6 6.7-.1 10.1c-5 21.8-10.8 44.2-7 66.3.3 1.9 1.4 4.2 3.3 3.9 9.4-13.4 16.4-28.5 22-43.9 4.5-12.6 8.2-25.9 6.8-39.1-.4-3.2 3.4-5.7 6.5-5s5.2 3.8 5.8 6.9.1 6.4-.4 9.5a312.7 312.7 0 0 0-3 73.6c.1 2.5.2 5.4-1.5 7.2s-6.8 1.1-8.8-1.7-2.1-6.4-2.1-9.8c-.2-6.3-.4-12.6-.5-18.9a249.5 249.5 0 0 1-12.3 23.5c-1.8 3-3.8 6.1-6.9 7.7-5.1 2.6-11.8.2-15.5-4.2s-4.9-10.4-5.5-16.2zm40 70.8c4.1 3 4.9 8.7 4.7 13.7a40.8 40.8 0 0 1-2.7 14.7 46.5 46.5 0 0 1-6.6 11.2c-5 6.4-11.3 12.1-18.9 14.9s-16.9 2-23-3.3-7.6-11.9-7.6-18.9 2.1-13.7 4.4-20.3a295.5 295.5 0 0 1 19.8-44.5 5.2 5.2 0 0 1 2.1-2.5 5.3 5.3 0 0 1 2.5-.1c2.2.2 4.5.5 6.3 1.8s2.8 3.9 1.5 5.7a155.6 155.6 0 0 0-24.6 61.7c-.3 1.8.5 4.5 2.2 3.9A50 50 0 0 1 81.1 179a17.3 17.3 0 0 1 6.5-4.2c3.9-1.2 8.1-.1 12 1.1a19.8 19.8 0 0 1 5.8 2.4m-6.1 8.4a4.2 4.2 0 0 0-.6-2.5 3.3 3.3 0 0 0-3.5-1.1 9.2 9.2 0 0 0-3.3 1.9 41.3 41.3 0 0 0-14.2 33.7 3.8 3.8 0 0 0 .6 2.3 1.6 1.6 0 0 0 2 .6 39.4 39.4 0 0 0 19-34.9zm-51.8-70.1c.2-4.3-2.3-8.2-4.6-11.8L24 75.9c-3.9-6-7.8-12-10.3-18.6s-3.5-14.1-1.3-20.9c3.5-11.3 15.9-18.9 27.8-17.7S62.4 29 66 40.4a5.8 5.8 0 0 1 .2 4.3c-1.4 3-6.2 2.1-8.2-.6S55.9 38 54.6 35c-2.7-6.3-10.3-9.8-17-8.5s-12.2 6.8-14.2 13.3-.9 12.5 1.3 18.3 5.7 11 9.1 16.2c6.7 10.2 13.4 20.4 20.2 30.6 2.2 3.3 4.4 6.8 5.1 10.8.9 5.5-1.5 11.2-5.3 15.2-7.2 7.7-19.2 10.1-29.2 6.8S6.8 125.9 3 116.1s-3.6-20.9-.8-31c.4-1.8 1.5-4 3.4-3.8s5.6.4 7.8 2 3.5 4.9 1.8 7a24 24 0 0 0-4 18.3c1 6.3 4.2 12.1 8.3 17 2.4 2.7 5.3 5.4 8.9 5.7a15.6 15.6 0 0 0 5.7-1c6.5-2.2 13.1-6.9 13.4-13.7zm203.4-96.2c-16.4-3.5-33.1 6.1-49.8 4.3-2-.2-5.1.6-4.5 2.5s-.8 2-1.9 2.2-2.3.3-3.1 1.1-.5 2.9.4 4 2.3 2 3.1 3.3 1.1 4.2.9 6.5l-2 24.6a5.9 5.9 0 0 1-.9 3.2c-1.3 1.5-3.9 1.4-5 3.1s0 3.9 1.3 5.3 3 3.1 2.9 5.1c-.3 10.4-.7 20.9-1.1 31.4 0 1.7-.5 3.9-2.2 4.2s-2.2 2.6-2.7 4.4-2.8 3.7-3.9 2.2l-32.9-44.7a2.6 2.6 0 0 1-.5-1.2 2.2 2.2 0 0 1 1.1-1.6 204.9 204.9 0 0 0 21.7-20c3.5-3.7 6.9-7.6 8.8-12.3s2.1-10.3-.6-14.5-7.9-6.5-12.8-7.9c-7.7-2.2-17-2.9-22.8 2.7-2.3 2.3-7.2-1.7-9.3.8a4.7 4.7 0 0 0-.8 2.6l-.9 13.7c-.5 7.3-1 14.5-1.6 21.7s-.9 14.1-1.4 21.2c-.6 9.3-1.1 18.7-1.4 28.1-.1 3.5-.1 7.2 1.9 10.1s6.6 4.2 8.9 1.6 1.4-3.9 1.4-6V91c-.1-.9 1.5-.6 2.1.1 11.7 13.1 19.7 29.3 31.9 41.9 2.3 2.3 4.8 4.6 7.9 5.8s6.8 1.2 9.4-.8 3.6-6.2 1.5-8.7c3.7.6 8.4 0 9.8-3.5a8.9 8.9 0 0 0 .3-4.6 190.3 190.3 0 0 1 .6-39.2c.4-3.2 3.5-5 6.4-6.4 7.9-3.8 21.6-9.2 29.7-12.8 2.9-1.7 4.7-6 3.6-8.7s-4.3-2.7-7.2-1.8c-7.7 3.1-23.6 9.2-31 12.7.6-8.3 1.2-16.6 1.9-24.9a4.8 4.8 0 0 1 .7-2.9 5 5 0 0 1 2.5-1.5 93.6 93.6 0 0 1 28.5-6c.9 2.4 4 3.6 6.6 3.1s4.8-2.2 6.8-3.8 3-2.4 3-4.2-2.9-3.8-5.3-4.4zM143.2 71.5c.5-8.8 1-17.5 1.7-26.2.2-2.4 1.8-4.3 3.4-6 4.2-4.3 9.7-7.9 15.7-7.3a7.9 7.9 0 0 1 5.7 2.8c2 2.9.8 6.9-.9 9.9-3.1 5.5-7.7 10.1-12.2 14.5a141.5 141.5 0 0 1-13.4 12.3zm-22 112.3c-4.7-9.7-4.6-21.8 1.3-30.8 3.2-4.9 8.3-8.8 14.1-9.7s12.3 1.7 15.1 6.8c1.1 2 3.5 2.9 5.8 3.3s4.6.7 6.5 2 2.7 4.4 1 5.9a251.9 251.9 0 0 0-27 29.5c-.6.8-1.3 1.9-.7 2.8 2.1 3 4.2 6.1 6.2 9.2 3.1 4.9 6 10 7.1 15.6s-.2 12-4.5 15.9c-6.3 5.7-17 3.6-22.8-2.5a25.9 25.9 0 0 1-6.7-18.4 34.2 34.2 0 0 1 6.4-18.7c2.2-3.2-.1-7.4-1.8-10.9m21.1-30.4c0-.7-.9-1.3-1.6-1.3a3.6 3.6 0 0 0-2.2.9c-8.2 5.7-11.6 17.3-7.9 26.6a1.6 1.6 0 0 0 .6.8c.7.4 1.4-.2 2-.8l13.7-15.6c.8-.9 1.4-2.5.4-2.9a8.5 8.5 0 0 1-5-7.7m-6.6 74.9a4.7 4.7 0 0 0 2.3-2.7c1.7-3.7 1.4-8 .1-11.9s-3.4-7.3-5.5-10.8c-.5-.7-1.7.1-2.1 1a32.5 32.5 0 0 0-1.8 4.3c-1.7 5.6-1.8 11.8 1 16.9 1.3 2.1 3.7 4.2 6 3.2zM249 138.8a5.9 5.9 0 0 0-1.3-1.8c-5.2-4.8-13.5-2.5-20.1.2l-35 14a3.7 3.7 0 0 1-2.3.4 4.2 4.2 0 0 1-2-1c-1.7-1.4-3.3-3-5.4-3.6s-4.8.1-5.4 2.2a257.1 257.1 0 0 0-7.7 29.9 11.8 11.8 0 0 0-.2 5.9c1 2.9 4.1 4.7 7.2 5s6.1-.6 9-1.5c7.7-2.4 15.8-4.9 23.6-2.8a4.7 4.7 0 0 1 3.4 2.2c.7 1.2.4 2.7.1 4a43.9 43.9 0 0 1-22.8 28c1.2-4.1 2.3-9-.2-12.5a3.2 3.2 0 0 0-4.1-.8 7.6 7.6 0 0 0-2.3 2.4l-.2.5a14.8 14.8 0 0 0-2 4.2c-2.7 4.8-3.5 10.9.1 14.8s6.1 3.5 9.5 3.1a23.8 23.8 0 0 0 9.5-3.8 58.3 58.3 0 0 0 22.1-24.8c2.5-5.5 4.1-12.1 1.3-17.5s-8.1-7.2-13.3-8.4a56 56 0 0 0-24.1-.7c-1.7.3-3.1-1.9-2.6-3.6a3.4 3.4 0 0 1 .6-1.2c.4-3.8 3.1-6.1 6.5-7.6a31.2 31.2 0 0 1 6.4-2.9c4.4-1.4 8.7-3.6 13.1-5.1a154.2 154.2 0 0 1 31.2-10.3 13.9 13.9 0 0 0 5.4-1.9c1.6-1.1 2.7-3.2 2-5zm-203.3 9.4a7 7 0 0 1 3.5 2.3c1 1.4.8 3.2.5 4.9l-12.9 78.4c-.5 3-4.4 4.6-7.3 3.5s-4.7-4.1-5.1-7.1.3-6 .9-9a684.7 684.7 0 0 0 11.9-71.1 3.8 3.8 0 0 1 3.6-2.9 10.5 10.5 0 0 1 4.9 1z"/></symbol><symbol id="logo-32" viewBox="0 0 31.9 31.4"><path fill="none" d="M20.8 7.6a3.9 3.9 0 0 0-.6 1.8l-.6 5.8a1.3 1.3 0 0 0 .2.9c.9-.7.8-2 1.3-2.9a17.7 17.7 0 0 0 1.5-4.6 1.2 1.2 0 0 0-.1-1 1.1 1.1 0 0 0-1.7 0zm-5-.1c-.1-.3-.1-.7-.2-1a.9.9 0 0 0-.8-.6 5.7 5.7 0 0 0-2.1 2.5c.4-.1.7.2.9.6a2.4 2.4 0 0 1 .3 1.2c.2 1.8.3 3.7.5 5.6 0 .2.1.5.3.5h.2a2.2 2.2 0 0 0 .9-1.4 5.5 5.5 0 0 0 .1-1.8zm2.8-1.3a2 2 0 0 0-1.1.2 1 1 0 0 0-.6.9 70.9 70.9 0 0 1 .1 8 3.4 3.4 0 0 0 .1 1.4 2.5 2.5 0 0 0 1.3-1.7 16 16 0 0 0 .3-2.3 37.5 37.5 0 0 1 .9-5.7c.1-.5-.5-.7-1-.8z"/><path fill="#283044" d="M29.4 1.3A1.6 1.6 0 0 0 27.6.1a2.3 2.3 0 0 0-1 .7c-2 2.4-1.1 6.3-3.1 8.8a2.4 2.4 0 0 0-1.4-3.5c-.7-.1-1.5-.1-1.9-.5s-3.3.4-4.6-.6-2 0-2.7.7-2.1 4.8-3.3 7.2a17.6 17.6 0 0 0-3.3-6.2c-.6-.8-1.6-1.6-2.6-1.3a1.8 1.8 0 0 0-1.4 1.4 4.1 4.1 0 0 0 0 1.9c.6 2.5 2.1 4.5 2.8 6.9s.4 1.9.7 2.8a9.2 9.2 0 0 0 3.1 3.7c1.2 1.1 2.6 2.3 2.5 3.9v1.6c-.1 3-.1 1.9-.1 2.7s.2.9.4 1 .6-.2.6-.8c.1-3.1 0 .3.2-2.9v-1.9a4.7 4.7 0 0 0-1.9-3.6 17 17 0 0 1-3-3c-.9-1.4-1-3.1-1.6-4.7s-2.5-4.3-2.5-6.7a1.1 1.1 0 0 1 .2-.8.9.9 0 0 1 1.2-.2 2.2 2.2 0 0 1 .9 1 35.6 35.6 0 0 1 3.5 6.7c.9.1 1.4-.8 1.7-1.6l1.5-4a33.9 33.9 0 0 1 .7 6.4 1.7 1.7 0 0 1-1.2 0c-.5-.1-1 0-1.1.4a.7.7 0 0 0 .7.7h1.1c.6.1 1 .7 1.6.9s1.5.2 1.6-.4a1.2 1.2 0 0 0 1.9.8c.2-.2.4-.5.6-.6a.4.4 0 0 1 .7.1.8.8 0 0 0 .9.2 1.8 1.8 0 0 0 .8-.7 10.9 10.9 0 0 1 4-2.7c.4-.2.9-.4.8-.8s-.9-.5-1.4-.2l-2.3 1.2c.2-1.7 2-2.8 2.9-4.3s1-6.3 3-8.7c.6.3.6 1.3.4 2L25.5 16a35.7 35.7 0 0 1-1 3.5c-.5 1.2-1.2 2.2-1.7 3.3a17.2 17.2 0 0 0-1.1 8.1.5.5 0 0 0 .5.4c.2 0 .6-.1.6-.4s-.1-1.7-.1-2.6a12.4 12.4 0 0 1 1.7-6.3 18.2 18.2 0 0 0 2.3-6.4c.9-4 1.8-7.9 2.6-11.8a4.3 4.3 0 0 0 .1-2.5zM15.8 14.8a2.2 2.2 0 0 1-.9 1.4h-.2c-.2 0-.3-.3-.3-.5-.2-1.9-.3-3.8-.5-5.6a2.4 2.4 0 0 0-.3-1.1c-.2-.4-.5-.7-.9-.6a5.7 5.7 0 0 1 2.1-2.5.9.9 0 0 1 .8.6c.1.3.1.7.2 1 0 1.8.1 3.7.1 5.5a5.5 5.5 0 0 1-.1 1.8zM19.6 7a37.5 37.5 0 0 0-.9 5.7 16 16 0 0 1-.3 2.3 2.5 2.5 0 0 1-1.3 1.7 3.4 3.4 0 0 1-.1-1.4 70.9 70.9 0 0 0-.1-8 1 1 0 0 1 .6-.9 2 2 0 0 1 1.1-.2c.5.1 1.1.3 1 .8zm3 1.6a17.7 17.7 0 0 1-1.5 4.6c-.5.9-.4 2.2-1.3 2.9a1.3 1.3 0 0 1-.2-.9l.6-5.8a3.9 3.9 0 0 1 .6-1.8 1.1 1.1 0 0 1 1.7 0 1.2 1.2 0 0 1 .1 1z"/><path fill="#010101" d="M14.2 24.7a11.9 11.9 0 0 1 .5 4.6.5.5 0 0 0 1 0 19.9 19.9 0 0 0-.5-4.9c-.2-.5-1.2-.3-1 .3z"/></symbol><symbol id="logo-16" viewBox="0 0 15.9 15.6"><path fill="none" d="M10.4 3.8a1.4 1.4 0 0 0-.3.9l-.3 2.9a.6.6 0 0 0 .1.4c.4-.3.4-1 .6-1.4a6.3 6.3 0 0 0 .8-2.3.7.7 0 0 0-.1-.5c-.1-.3-.6-.2-.8 0zm-2.5-.1a1.1 1.1 0 0 0-.1-.5l-.4-.3a2.8 2.8 0 0 0-1.1 1.3.5.5 0 0 1 .5.3c.1.2.1.4.2.6s.1 1.8.2 2.8l.2.2a1.5 1.5 0 0 0 .5-.7 2.8 2.8 0 0 0 .1-.9zm1.4-.6h-.6c-.1.1-.3.2-.3.4a27.1 27.1 0 0 1 .1 4v.7a1.1 1.1 0 0 0 .7-.8 4.5 4.5 0 0 0 .1-1.1 25 25 0 0 1 .5-2.9c.1-.1-.3-.3-.5-.3z"/><path fill="#283044" d="M14.7.7c-.1-.4-.5-.8-.9-.7a1 1 0 0 0-.5.4c-1 1.2-.5 3.1-1.5 4.4a1.3 1.3 0 0 0-.8-1.7c-.3-.1-.7-.1-.9-.3s-1.7.2-2.3-.3-1 0-1.3.3-1.1 2.5-1.7 3.6a8.7 8.7 0 0 0-1.6-3c-.4-.4-.9-.9-1.4-.7a.9.9 0 0 0-.6.7 1.7 1.7 0 0 0 0 1c.2 1.2 1 2.2 1.3 3.4s.2.9.4 1.3A4.7 4.7 0 0 0 4.4 11c.6.6 1.3 1.2 1.3 1.9v.9c-.1 1.5-.1.9-.1 1.3s.1.5.2.5.3-.1.3-.4 0 .1.1-1.4v-1a2.3 2.3 0 0 0-.9-1.8 5.3 5.3 0 0 1-1.5-1.5A6.3 6.3 0 0 1 3 7.2C2.6 6 1.7 5 1.7 3.8s.1-.3.1-.4a.6.6 0 0 1 .7-.1 1 1 0 0 1 .4.5 22.1 22.1 0 0 1 1.8 3.4c.4 0 .6-.4.8-.8a11.9 11.9 0 0 1 .8-2 16.6 16.6 0 0 1 .3 3.2c-.2.1-.4 0-.6 0s-.5 0-.5.2.1.3.3.3h.5c.3 0 .6.3.8.4s.8.1.8-.2.7.7 1 .4l.3-.3h.4c0 .2.3.2.4.2l.4-.4a4.6 4.6 0 0 1 2-1.3c.2-.1.5-.2.4-.4s-.5-.3-.7-.1l-1.2.6c.1-.9 1-1.4 1.5-2.1s.5-3.2 1.5-4.4.3.6.2 1L12.7 8a4.8 4.8 0 0 1-.5 1.7 13 13 0 0 1-.8 1.7 7.7 7.7 0 0 0-.5 4c0 .1 0 .2.2.2l.3-.2v-1.3a6.1 6.1 0 0 1 .8-3.2 8.2 8.2 0 0 0 1.2-3.2c.4-1.9.8-3.9 1.3-5.8a4.8 4.8 0 0 0 0-1.2zM7.9 7.4a1.5 1.5 0 0 1-.5.7l-.2-.2C7.1 6.9 7 6 7 5.1s-.1-.4-.2-.6a.5.5 0 0 0-.5-.3 2.8 2.8 0 0 1 1.1-1.3l.4.3a1.1 1.1 0 0 1 .1.5v2.8a2.8 2.8 0 0 1 0 .9zm1.9-3.9a25 25 0 0 0-.5 2.9 4.5 4.5 0 0 1-.1 1.1 1.1 1.1 0 0 1-.7.8v-.7a27.1 27.1 0 0 0-.1-4c0-.2.2-.3.3-.4h.6c.2-.1.6.1.5.3zm1.5.8a6.3 6.3 0 0 1-.8 2.3c-.2.4-.2 1.1-.6 1.4a.6.6 0 0 1-.1-.4l.3-2.9a1.4 1.4 0 0 1 .3-.9c.2-.2.7-.3.8 0a.7.7 0 0 1 .1.5z"/><path fill="#010101" d="M7.1 12.3a8.5 8.5 0 0 1 .3 2.3.2.2 0 1 0 .4 0 6.3 6.3 0 0 0-.2-2.4c-.1-.3-.6-.2-.5.1z"/></symbol><symbol id="logo-64" viewBox="0 0 64 63.2"><path fill="none" d="M41.8 15.4a5.8 5.8 0 0 0-1.2 3.6l-1.2 11.7c0 .6 0 1.4.5 1.8 1.6-1.4 1.4-4 2.4-5.9a30.3 30.3 0 0 0 3.1-9.2 3.4 3.4 0 0 0-.2-2.2 2.3 2.3 0 0 0-3.4.2zm-10.2-.3a4.9 4.9 0 0 0-.3-2 2 2 0 0 0-1.6-1.2 11.6 11.6 0 0 0-4.3 5 2.2 2.2 0 0 1 2 1.2 4.9 4.9 0 0 1 .5 2.4c.4 3.8.7 7.6 1 11.4.1.4.3.9.7.9h.2a4.6 4.6 0 0 0 2-2.9 21.7 21.7 0 0 0 .2-3.6zm5.7-2.6a4.3 4.3 0 0 0-2.2.4 2 2 0 0 0-1.2 1.8 123.4 123.4 0 0 1 .2 16.1 9.7 9.7 0 0 0 .2 2.9 5.6 5.6 0 0 0 2.7-3.5 23 23 0 0 0 .5-4.5 93.4 93.4 0 0 1 1.9-11.6c.2-.9-1.1-1.5-2.1-1.6z"/><path fill="#283044" d="M59.1 2.7C58.6 1.1 57-.2 55.4.2a4.6 4.6 0 0 0-2 1.4c-4.1 4.9-2.2 12.8-6.1 17.7a4.8 4.8 0 0 0-3-6.9c-1.3-.4-2.8-.2-3.7-1.2s-6.7.9-9.3-1.1-4-.1-5.3 1.4c-3.7 4-4.2 9.8-6.8 14.4a33.9 33.9 0 0 0-6.5-12.3c-1.3-1.6-3.3-3.3-5.4-2.8a4 4 0 0 0-2.7 2.8 9 9 0 0 0 .1 4c1.1 4.9 4.2 9.1 5.5 13.9a56.2 56.2 0 0 0 1.5 5.5c1.2 3.1 3.6 5.5 6.1 7.6s5.2 4.6 5.1 7.8c-.1 1.1-.1 2.2-.2 3.3a44.5 44.5 0 0 0-.2 5.4c0 1.6.4 1.8.9 2s1.2-.3 1.2-1.6a56.2 56.2 0 0 1 .2-5.8l.2-3.8c.1-2.8-1.8-5.4-3.9-7.3s-4.5-3.6-6-6-2.1-6.4-3.2-9.5S7 20.3 7 15.4a3.2 3.2 0 0 1 .4-1.6 2.1 2.1 0 0 1 2.5-.3 5 5 0 0 1 1.8 2 67.2 67.2 0 0 1 7 13.6c1.7.1 2.7-1.8 3.3-3.3l3.1-8.1a62.7 62.7 0 0 1 1.3 12.9c-.7.5-1.6.2-2.4 0s-1.9.1-2.1.9.6 1.3 1.4 1.4 1.4 0 2.1.2 2.2 1.3 3.3 1.9 3 .4 3.2-.9a2.5 2.5 0 0 0 3.9 1.5 6.8 6.8 0 0 1 1.2-1.2 1 1 0 0 1 1.4.2 1.5 1.5 0 0 0 1.8.5 5 5 0 0 0 1.5-1.4 21.6 21.6 0 0 1 8.1-5.5c.8-.3 1.8-.8 1.6-1.7s-1.8-.8-2.8-.3l-4.7 2.5c.4-3.5 4-5.7 6-8.7 3.5-5.2 1.9-12.7 5.9-17.6 1.3.7 1.2 2.6.9 4-1.9 8.6-3.7 17.2-5.6 25.8a34.9 34.9 0 0 1-2 7.2c-.9 2.3-2.3 4.4-3.3 6.6-2.3 5.2-2.6 10.6-2.1 16.3 0 .4.2.8 1 .8s1.1-.3 1.1-.7-.2-3.5-.1-5.4c0-4.4.8-9 3.4-12.7s3.6-8.4 4.6-12.9c1.7-8 3.4-15.9 5.2-23.8a10.2 10.2 0 0 0 .2-4.9zM31.8 29.8a4.6 4.6 0 0 1-2 2.9h-.2c-.4 0-.6-.5-.7-.9-.3-3.8-.6-7.6-1-11.4a4.9 4.9 0 0 0-.5-2.4 2.2 2.2 0 0 0-2-1.2 11.6 11.6 0 0 1 4.3-5 2 2 0 0 1 1.6 1.2 4.9 4.9 0 0 1 .3 2c.2 3.7.3 7.4.4 11.1a21.7 21.7 0 0 1-.2 3.7zm7.6-15.7a93.4 93.4 0 0 0-1.9 11.6 23 23 0 0 1-.5 4.5 5.6 5.6 0 0 1-2.7 3.5 9.7 9.7 0 0 1-.2-2.9 123.4 123.4 0 0 0-.2-16.1 2 2 0 0 1 1.2-1.8 4.3 4.3 0 0 1 2.2-.4c1 .1 2.3.7 2.1 1.6zm6 3.3a30.3 30.3 0 0 1-3.1 9.2c-1 1.9-.8 4.5-2.4 5.9-.5-.4-.5-1.2-.5-1.8L40.6 19a5.8 5.8 0 0 1 1.2-3.6 2.3 2.3 0 0 1 3.4-.2 3.4 3.4 0 0 1 .2 2.2z"/><path fill="#010101" d="M28.6 49.8c1.1 3 .8 6.1.9 9.2a1 1 0 0 0 2 0c-.1-3.3.1-6.6-1-9.7-.5-1.2-2.3-.7-1.9.5z"/></symbol></svg>