<svg xmlns="http://www.w3.org/2000/svg" width="31.9" height="31.4" viewBox="0 0 31.9 31.4"><title>logo-32</title><g id="Hand"><path d="M20.8,7.6a3.9,3.9,0,0,0-.6,1.8l-.6,5.8a1.3,1.3,0,0,0,.2.9c.9-.7.8-2,1.3-2.9a17.7,17.7,0,0,0,1.5-4.6,1.2,1.2,0,0,0-.1-1A1.1,1.1,0,0,0,20.8,7.6Z" fill="none"/><path d="M15.8,7.5c-.1-.3-.1-.7-.2-1a.9.9,0,0,0-.8-.6,5.7,5.7,0,0,0-2.1,2.5c.4-.1.7.2.9.6a2.4,2.4,0,0,1,.3,1.2c.2,1.8.3,3.7.5,5.6,0,.2.1.5.3.5h.2a2.2,2.2,0,0,0,.9-1.4,5.5,5.5,0,0,0,.1-1.8Z" fill="none"/><path d="M18.6,6.2a2,2,0,0,0-1.1.2,1,1,0,0,0-.6.9,70.9,70.9,0,0,1,.1,8,3.4,3.4,0,0,0,.1,1.4A2.5,2.5,0,0,0,18.4,15a16,16,0,0,0,.3-2.3A37.5,37.5,0,0,1,19.6,7C19.7,6.5,19.1,6.3,18.6,6.2Z" fill="none"/><path d="M29.4,1.3A1.6,1.6,0,0,0,27.6.1a2.3,2.3,0,0,0-1,.7c-2,2.4-1.1,6.3-3.1,8.8a2.4,2.4,0,0,0-1.4-3.5c-.7-.1-1.5-.1-1.9-.5S16.9,6,15.6,5s-2,0-2.7.7-2.1,4.8-3.3,7.2A17.6,17.6,0,0,0,6.3,6.7c-.6-.8-1.6-1.6-2.6-1.3A1.8,1.8,0,0,0,2.3,6.8a4.1,4.1,0,0,0,0,1.9c.6,2.5,2.1,4.5,2.8,6.9s.4,1.9.7,2.8a9.2,9.2,0,0,0,3.1,3.7c1.2,1.1,2.6,2.3,2.5,3.9v1.6c-.1,3-.1,1.9-.1,2.7s.2.9.4,1,.6-.2.6-.8c.1-3.1,0,.3.2-2.9V25.7a4.7,4.7,0,0,0-1.9-3.6,17,17,0,0,1-3-3c-.9-1.4-1-3.1-1.6-4.7S3.5,10.1,3.5,7.7a1.1,1.1,0,0,1,.2-.8.9.9,0,0,1,1.2-.2,2.2,2.2,0,0,1,.9,1,35.6,35.6,0,0,1,3.5,6.7c.9.1,1.4-.8,1.7-1.6l1.5-4a33.9,33.9,0,0,1,.7,6.4,1.7,1.7,0,0,1-1.2,0c-.5-.1-1,0-1.1.4a.7.7,0,0,0,.7.7h1.1c.6.1,1,.7,1.6.9s1.5.2,1.6-.4a1.2,1.2,0,0,0,1.9.8c.2-.2.4-.5.6-.6a.4.4,0,0,1,.7.1.8.8,0,0,0,.9.2,1.8,1.8,0,0,0,.8-.7,10.9,10.9,0,0,1,4-2.7c.4-.2.9-.4.8-.8s-.9-.5-1.4-.2l-2.3,1.2c.2-1.7,2-2.8,2.9-4.3s1-6.3,3-8.7c.6.3.6,1.3.4,2L25.5,16a35.7,35.7,0,0,1-1,3.5c-.5,1.2-1.2,2.2-1.7,3.3a17.2,17.2,0,0,0-1.1,8.1.5.5,0,0,0,.5.4c.2,0,.6-.1.6-.4s-.1-1.7-.1-2.6A12.4,12.4,0,0,1,24.4,22a18.2,18.2,0,0,0,2.3-6.4c.9-4,1.8-7.9,2.6-11.8A4.3,4.3,0,0,0,29.4,1.3ZM15.8,14.8a2.2,2.2,0,0,1-.9,1.4h-.2c-.2,0-.3-.3-.3-.5-.2-1.9-.3-3.8-.5-5.6A2.4,2.4,0,0,0,13.6,9c-.2-.4-.5-.7-.9-.6a5.7,5.7,0,0,1,2.1-2.5.9.9,0,0,1,.8.6c.1.3.1.7.2,1,0,1.8.1,3.7.1,5.5A5.5,5.5,0,0,1,15.8,14.8ZM19.6,7a37.5,37.5,0,0,0-.9,5.7,16,16,0,0,1-.3,2.3,2.5,2.5,0,0,1-1.3,1.7,3.4,3.4,0,0,1-.1-1.4,70.9,70.9,0,0,0-.1-8,1,1,0,0,1,.6-.9,2,2,0,0,1,1.1-.2C19.1,6.3,19.7,6.5,19.6,7Zm3,1.6a17.7,17.7,0,0,1-1.5,4.6c-.5.9-.4,2.2-1.3,2.9a1.3,1.3,0,0,1-.2-.9l.6-5.8a3.9,3.9,0,0,1,.6-1.8,1.1,1.1,0,0,1,1.7,0A1.2,1.2,0,0,1,22.6,8.6Z" fill="#283044"/><path d="M14.2,24.7a11.9,11.9,0,0,1,.5,4.6.5.5,0,0,0,1,0,19.9,19.9,0,0,0-.5-4.9c-.2-.5-1.2-.3-1,.3Z" fill="#010101"/></g></svg>