<svg xmlns="http://www.w3.org/2000/svg" width="128" height="128" viewBox="0 0 128 128"><path fill="none" stroke="#283044" stroke-linecap="round" stroke-linejoin="round" stroke-width="6" d="M66 50.8c-4.3-22.9 19.3-41.6 40.7-22.1 8.5-1 11-3.5 14.8-5.3 0 0-1.1 7-8.9 12.3a48.7 48.7 0 0 0 12-2.8s-2.1 5.8-10.8 10.8c2.2 51.1-46.3 91.9-106.7 63.7 0 0 25.1 2.8 36-10.4-7.8-1.7-14.8-1.7-22.3-15.8 0 0 7.5 1.5 9.5-2-2.8-2.8-16.1-1.6-18.8-23.4 0 0 5.3 3.3 10 1.6-6.6-5.8-13.7-14.8-7.1-32.2 0 0 19 27.5 51.6 25.6z"/></svg>